<svg width="14" height="16" viewBox="0 0 14 16" fill="none" xmlns="http://www.w3.org/2000/svg">
<path d="M7.47732 13.7558C7.27516 13.6585 7.07613 13.5537 6.88056 13.4417C5.90629 12.8451 5.01157 12.1075 4.22108 11.2493C3.19497 10.2029 2.35219 8.96402 1.73349 7.59242C1.40252 6.85533 1.1789 6.06717 1.07057 5.25594C0.923666 4.4366 1.00728 3.58834 1.31057 2.82108C1.49803 2.49081 1.72376 2.18865 1.98193 1.92232C2.08668 1.79502 2.21413 1.69199 2.35659 1.61941C2.49905 1.54683 2.65358 1.50622 2.81091 1.5C3.13848 1.55341 3.43491 1.73892 3.63988 2.0214C4.08746 2.56038 4.56746 3.04524 5.04033 3.55751C5.22649 3.73038 5.3426 3.97562 5.36336 4.24054C5.35557 4.46329 5.27644 4.67621 5.13957 4.84275C4.9826 5.05848 4.79189 5.25594 4.60962 5.46254C4.49973 5.57763 4.41568 5.71851 4.36395 5.87432C4.31222 6.03014 4.29419 6.19674 4.31124 6.36129C4.42567 6.74606 4.62134 7.09662 4.88271 7.38513C5.19795 7.85242 5.51255 8.28459 5.86866 8.74204C6.50917 9.54344 7.2683 10.2238 8.11495 10.7553C8.23205 10.8509 8.37044 10.9112 8.51605 10.9301C8.66167 10.949 8.8093 10.9258 8.94393 10.8628C9.22577 10.6928 9.47589 10.4674 9.68145 10.198C9.85983 9.96264 10.1154 9.81156 10.3943 9.77572C10.6428 9.78977 10.8769 9.90502 11.0495 10.099C11.2726 10.3056 11.4633 10.5487 11.6709 10.7729C11.8778 10.9977 12.0438 11.1593 12.2177 11.3659C12.4261 11.565 12.6222 11.7777 12.806 12.004C12.9487 12.2036 13.0162 12.4537 12.9967 12.7046C12.9228 13.0049 12.7632 13.2722 12.5407 13.4684C12.2279 13.821 11.8479 14.0954 11.4271 14.2724C11.0062 14.4493 10.5548 14.5246 10.1044 14.493C9.19244 14.4369 8.2997 14.1864 7.47732 13.7558Z" stroke="#00173E" stroke-width="1.5" stroke-miterlimit="10" stroke-linecap="round"/>
</svg>
